<?xml version="1.0" encoding="utf-8"?>
<!-- Generator: Adobe Illustrator 27.5.0, SVG Export Plug-In . SVG Version: 6.00 Build 0)  -->
<svg version="1.1" id="Слой_1" xmlns="http://www.w3.org/2000/svg" xmlns:xlink="http://www.w3.org/1999/xlink" x="0px" y="0px"
	 viewBox="0 0 3050 2000" style="enable-background:new 0 0 3050 2000;" xml:space="preserve">
<g>
	<rect y="-0.001" style="fill:#FFFFFF;" width="3050" height="2000"/>
	<path style="fill:#E3EAFF;" d="M156.482,1840.373c-235.662-353.17-101.16-708.27,170.368-909.801
		c276.021-204.865-35.585-628.703,513.789-801.169c284.2-89.222,534.122,154.1,812.689,164.672
		c249.613,9.474,507.829-205.107,761.266-105.703c169.482,57.22,338.904,217.806,326.268,409.812
		c-6.529,99.218-64.336,216.671-4.479,292.045c252.627,318.113,226.588,596.362,127.58,945.688
		C2863.988,1835.906,156.482,1840.373,156.482,1840.373z"/>
	<g>
		<g>
			<path style="fill:#2C2858;" d="M1143.218,1009.119c29.587-10.306,92.455-42.052,62.671-84.856s-42.438-24.871-30.984-76.341
				c11.454-51.471-24.782-92.458-59.866-82.571c-35.084,9.886-44.32,38.088-87.108,30.454c-42.788-7.633-78.859,32.067-63.105,67.01
				c15.754,34.943,22.462,51.76,7.163,70.839c-15.299,19.08-83.511,39.062-55.662,85.478c27.848,46.415,40.874,43.729,30.766,67.253
				c-10.109,23.524,12.313,50.682,51.767,47.44c39.453-3.24,75.294-17.752,90.232-61.601
				C1104.03,1028.378,1143.218,1009.119,1143.218,1009.119z"/>
			<polygon style="fill:#F37A50;" points="1076.535,1759.358 1074.09,1784.498 1095.123,1790.881 1112.02,1772.849 
				1114.796,1762.465 			"/>
			<path style="fill:#F37A50;" d="M1142.9,1252.183c0,0,31.571,204.409,23.057,292.014c-8.514,87.606-51.341,218.664-51.341,218.664
				h-38.421c0,0,0.65-15.853,2.153-68.078c1.916-66.611,0.006-121.303,29.091-155.657c-15.067-64.989-53.61-286.942-53.61-286.942
				H1142.9z"/>
			<path style="fill:#F37A50;" d="M1103.893,1287.128c0,0-10.207,188.151-41.228,270.521c-79.46,54.166-151.7,80.418-199.78,99.332
				c-2.264,0.892-11.812-34.877-11.812-34.877c53.394-34.926,100.261-97.887,154.737-89.788
				c-9.315-60.253-18.34-215.11-18.34-215.11L1103.893,1287.128z"/>
			<path style="fill:#F37A50;" d="M1061.27,952.679v77.297c0,0,25.766,13.742,48.096,0c-3.435-17.177-5.473-71.899-5.473-71.899
				L1061.27,952.679z"/>
			<path style="fill:#F595AD;" d="M1015.173,994.383h128.241c0,0,23.031,51.699,19.901,95.962
				c-3.129,44.266-8.75,164.706-8.75,164.706s-78.658-17.851-128.875-33.347c-3.996-90.828-30.962-132.236-29.104-161.745
				C998.446,1030.45,1015.173,994.383,1015.173,994.383z"/>
			<g>
				<ellipse style="fill:#F37A50;" cx="1084.043" cy="885.017" rx="58.332" ry="78.414"/>
				<path style="fill:#2C2858;" d="M1021.831,885.017c32.202-4.117,62.141-22.062,79.052-45.248
					c10.924,27.1,41.492,45.248,41.492,45.248s22.908-51.841-18.755-79.808C1083.874,778.532,989.044,796.761,1021.831,885.017z"/>
				<path d="M1059.505,901.75c-3.424,0-6.2-2.776-6.2-6.201c0-3.423,2.775-6.2,6.2-6.2c3.423,0,6.199,2.777,6.199,6.2
					C1065.704,898.974,1062.928,901.75,1059.505,901.75z"/>
				<path d="M1108.913,901.75c-3.424,0-6.2-2.776-6.2-6.201c0-3.423,2.775-6.2,6.2-6.2c3.423,0,6.199,2.777,6.199,6.2
					C1115.112,898.974,1112.336,901.75,1108.913,901.75z"/>
				<g>
					<path style="fill:#2C2858;" d="M1119.835,889.964c-1.017,0.001-2.008-0.521-2.564-1.46c-1.531-2.581-3.386-4.129-5.512-4.6
						c-3.675-0.813-7.314,1.64-7.352,1.666c-1.352,0.923-3.204,0.588-4.136-0.759c-0.932-1.347-0.608-3.19,0.734-4.128
						c0.231-0.163,5.737-3.954,11.973-2.608c3.828,0.826,6.996,3.313,9.415,7.393c0.838,1.414,0.372,3.24-1.043,4.079
						C1120.874,889.83,1120.351,889.964,1119.835,889.964z"/>
				</g>
				<g>
					<path style="fill:#2C2858;" d="M1047.744,890.266c-0.653,0-1.31-0.214-1.86-0.655c-1.283-1.026-1.49-2.901-0.462-4.185
						c3.913-4.885,8.245-7.544,12.873-7.901c5.973-0.463,10.08,3.22,10.251,3.377c1.213,1.109,1.298,2.992,0.188,4.205
						c-1.104,1.209-2.974,1.299-4.188,0.207c-0.087-0.076-2.528-2.14-5.866-1.846c-2.896,0.253-5.793,2.165-8.611,5.682
						C1049.481,889.883,1048.616,890.266,1047.744,890.266z"/>
				</g>
				<path style="fill:#DE623C;" d="M1090.193,903.687c8.019,5.782,10.52,8.154,13.614,10.081
					c-2.137,7.159-13.365,10.714-16.558,9.889c7.82-3.855,8.922-9.077,8.922-9.077L1090.193,903.687z"/>
				<path style="fill:#F37A50;" d="M1034.425,891.067c6.685,8.466,7.017,19.345,0.744,24.299
					c-6.274,4.954-16.779,2.107-23.464-6.359c-6.685-8.465-7.018-19.344-0.743-24.297
					C1017.235,879.753,1027.741,882.602,1034.425,891.067z"/>
				<g>
					<path style="fill:#DE623C;" d="M1028.559,909.357c-0.257,0-0.519-0.051-0.771-0.158c-1.01-0.426-1.483-1.59-1.057-2.6
						c1.417-3.356,1.449-6.056,0.095-8.024c-2.089-3.04-7.023-3.978-10.606-3.859c-1.095,0.039-2.013-0.822-2.05-1.918
						c-0.037-1.096,0.821-2.013,1.917-2.049c4.809-0.161,11.015,1.221,14.01,5.577c1.492,2.17,2.754,5.982,0.29,11.816
						C1030.068,908.9,1029.333,909.357,1028.559,909.357z"/>
				</g>
				<path style="fill:#FFFFFF;" d="M1068.568,934.244c-0.831-1.357,0.349-3.047,1.906-2.718c3.959,0.834,10.519,2.077,16.834,2.641
					c6.316,0.564,12.991,0.503,17.036,0.382c1.59-0.047,2.452,1.824,1.394,3.014c-3.252,3.657-9.784,9.065-19.465,8.202
					C1076.592,944.901,1071.121,938.42,1068.568,934.244z"/>
			</g>
			<g>
				<path style="fill:#2C2858;" d="M1095.626,1788.092c5.226-13.718,16.394-15.243,16.394-15.243
					c21.709,28.956,75.022,11.188,73.258,50.354c-81.073-0.504-114.768,0-114.768,0c0.107-8.995,1.71-30.348,3.58-38.705l4.225,0.75
					L1095.626,1788.092z"/>
				<path style="fill:#201D40;" d="M1181.412,1833.658h-106.993c-2.159,0-3.909-1.75-3.909-3.908v-7.627h114.811v7.627
					C1185.321,1831.908,1183.571,1833.658,1181.412,1833.658z"/>
			</g>
			<g>
				<polygon style="fill:#F37A50;" points="854.813,1619.629 826.161,1634.221 830.206,1655.17 853.343,1661.51 864.222,1656.455 
									"/>
				<path style="fill:#2C2858;" d="M832.83,1654.34c14.143-1.727,20.513,7.17,20.513,7.17
					c-15.029,31.756,24.372,69.482-10.055,85.705c-36.287-69.836-51.979-98.538-51.979-98.538
					c7.771-3.981,26.83-12.276,34.852-14.456l1.27,3.967L832.83,1654.34z"/>
				<path style="fill:#201D40;" d="M832.187,1747.923l-47.711-90.446c-1.185-2.244-0.324-5.023,1.921-6.207l5.839-3.08
					l51.999,98.574l-5.84,3.08C836.15,1751.027,833.37,1750.168,832.187,1747.923z"/>
			</g>
			<g>
				<g>
					<g>
						<g>
							<path style="fill:#070635;" d="M1018.414,1477.389c-23.64-4.273-46.318-4.25-59.62-3.957
								c8.417-28.158,5.983-201.983,59.332-261.759h134.271c47.528,81.556,29.598,202.397,58.969,251.899
								c-11.472,5.545-43.641,19.436-85.757,23.684C1079.036,1491.957,1058.365,1484.617,1018.414,1477.389z"/>
						</g>
					</g>
				</g>
			</g>
			<path style="fill:#E62552;" d="M1061.27,994.383l-32.254-2.693c0,0-40.456-85.406-55.99-113.02
				c-10.586-44.331,4.452-161.317,4.452-161.317l-47.008-11.173c0,0-21.529,142.776-14.251,183.059
				c1.92,10.624,60.538,135.647,60.538,135.647s19.831,35.073-7.247,211.137c38.231,9.484,64.902,10.055,64.902,10.055
				L1061.27,994.383z"/>
			<path style="fill:#E62552;" d="M1105.764,994.382l25.036,251.696c0,0,11.436,3.873,54.379-8.9
				c-20.797-105.115-14.738-169.615-11.797-189.822c0.608-4.184,1.924-8.217,3.905-11.951c9.01-16.978,38.744-74.966,66.137-150.387
				c-1.717-35.125-27.125-178.836-27.125-178.836l-44.474-2.369l13.571,168.987c0,0-47.596,103.782-53.207,120.969L1105.764,994.382
				z"/>
		</g>
		<path style="fill:#7F99EB;" d="M1409.007,724.969H749.434c-30.352,0-54.956-24.604-54.956-54.956V516.996
			c0-30.352,24.604-54.957,54.957-54.957h659.572c30.352,0,54.957,24.605,54.957,54.957v153.018
			C1463.963,700.365,1439.358,724.969,1409.007,724.969z"/>
		<g>
			<path style="fill:#F9F93A;" d="M824.854,653.5l-34.204-20.533l-34.289,20.391c-3.337,1.985-7.426-0.999-6.555-4.783l8.959-38.874
				l-29.988-26.309c-2.92-2.561-1.347-7.372,2.522-7.712l39.74-3.492l15.755-36.652c1.534-3.567,6.596-3.557,8.114,0.017
				l15.602,36.717l39.726,3.657c3.867,0.357,5.421,5.174,2.491,7.723l-30.098,26.184l8.797,38.912
				C832.284,652.533,828.183,655.499,824.854,653.5z"/>
			<path style="fill:#F9F93A;" d="M969.084,653.5l-34.204-20.533l-34.289,20.391c-3.338,1.985-7.428-0.999-6.555-4.783l8.959-38.874
				l-29.989-26.309c-2.919-2.561-1.345-7.372,2.523-7.712l39.741-3.492l15.754-36.652c1.533-3.567,6.595-3.557,8.114,0.017
				l15.602,36.717l39.726,3.657c3.867,0.357,5.421,5.174,2.492,7.723l-30.098,26.184l8.797,38.912
				C976.515,652.533,972.413,655.499,969.084,653.5z"/>
			<path style="fill:#F9F93A;" d="M1113.314,653.5l-34.203-20.533l-34.289,20.391c-3.338,1.985-7.427-0.999-6.555-4.783
				l8.959-38.874l-29.989-26.309c-2.919-2.561-1.345-7.372,2.523-7.712l39.741-3.492l15.754-36.652
				c1.534-3.567,6.596-3.557,8.114,0.017l15.603,36.717l39.726,3.657c3.867,0.357,5.421,5.174,2.491,7.723l-30.098,26.184
				l8.798,38.912C1120.746,652.533,1116.644,655.499,1113.314,653.5z"/>
			<path style="fill:#F9F93A;" d="M1257.545,653.5l-34.204-20.533l-34.289,20.391c-3.337,1.985-7.427-0.999-6.555-4.783
				l8.959-38.874l-29.989-26.309c-2.919-2.561-1.345-7.372,2.523-7.712l39.741-3.492l15.755-36.652
				c1.533-3.567,6.595-3.557,8.114,0.017l15.602,36.717l39.726,3.657c3.868,0.357,5.422,5.174,2.492,7.723l-30.099,26.184
				l8.798,38.912C1264.976,652.533,1260.875,655.499,1257.545,653.5z"/>
			<path style="fill:#F9F93A;" d="M1401.776,653.5l-34.205-20.533l-34.288,20.391c-3.337,1.985-7.426-0.999-6.555-4.783
				l8.959-38.874l-29.989-26.309c-2.919-2.561-1.346-7.372,2.523-7.712l39.74-3.492l15.754-36.652
				c1.534-3.567,6.596-3.557,8.115,0.017l15.602,36.717l39.725,3.657c3.868,0.357,5.422,5.174,2.493,7.723l-30.097,26.184
				l8.796,38.912C1409.207,652.533,1405.106,655.499,1401.776,653.5z"/>
		</g>
	</g>
	<path style="fill:#95A6DB;" d="M2883.934,1853.381H141.167c-6.629,0-12.002-5.373-12.002-12.002l0,0
		c0-6.629,5.373-12.002,12.002-12.002h2742.767c6.628,0,12,5.373,12,12.002l0,0
		C2895.934,1848.008,2890.562,1853.381,2883.934,1853.381z"/>
	<g>
		<path style="fill:#95A6DB;" d="M2880.498,1427.404c0,0,21.84,23.803,9.566,78.541c-12.518,55.777,0.441,89.455,0.441,89.455
			l-17.84,24.51c0,0-17.068-51.852-4.877-96.195C2883.115,1468.23,2880.498,1427.404,2880.498,1427.404z"/>
		<path style="fill:#95A6DB;" d="M2950.657,1426.707c0,0,9.587,21.797-9.987,60.088c-20.025,39.008-18.305,66.461-18.305,66.461
			l-15.094,19.451c0,0-2.574-46.322,14.842-76.932C2943.856,1457.484,2950.657,1426.707,2950.657,1426.707z"/>
		<path style="fill:#95A6DB;" d="M2844.342,1491.35c0,0-17.001,19.084-16.202,79.623c0.644,49.335,17.212,71.262,17.431,101.537
			l21.404-38.103c-3.126-20.765-19.42-31.039-22.17-75.748C2842.216,1516.803,2844.342,1491.35,2844.342,1491.35z"/>
		<path style="fill:#95A6DB;" d="M2702.907,1708.74c0,0-3.466,25.396,30.938,75.148c28.048,40.602,52.826,40.957,59.803,50.2
			l4.635-25.004c-16.666-14.587-30.246-9.101-57.46-44.679C2715.326,1731.008,2702.907,1708.74,2702.907,1708.74z"/>
		<path style="fill:#95A6DB;" d="M2805.344,1538.608c0,0-4.318,43.91-1.336,70.536c4.17,37.857,23.396,54.06,30.434,92.424
			l-14.408,29.484c0,0-27.393-35.466-30.668-82.385C2783.86,1569.934,2805.344,1538.608,2805.344,1538.608z"/>
		<path style="fill:#95A6DB;" d="M2739.61,1574.391c9.713,22.77,16.042,46.838,18.788,71.439
			c7.787,74.609,56.675,118.041,56.675,118.041l-9.286,20.344c0,0-55.869-27.049-60.648-89.893
			C2740.16,1627.904,2739.61,1574.391,2739.61,1574.391z"/>
		<path style="fill:#95A6DB;" d="M2866.643,1639.91c0,0,15.654-10.102,88.799-17.834c46.878-4.938,29.494-19.035,75.52-16.18
			c-32.002,10.604-37.5,37.098-80.834,44.225c-34.66,5.678-68.824,14.063-102.176,25.076L2866.643,1639.91z"/>
		<path style="fill:#95A6DB;" d="M3015.273,1653.545c0,0-19.596,41.691-83.654,52.07c-39.406,6.485-77.479,19.406-112.691,38.246
			l11.509-36.227c0,0,21.622-25.111,89.266-29.506C2966.176,1675.1,3015.273,1653.545,3015.273,1653.545z"/>
		<path style="fill:#95A6DB;" d="M2991.86,1722.287c0,0-19.597,41.691-83.655,52.068c-39.406,6.486-77.478,19.408-112.691,38.246
			l11.508-36.226c0,0,21.623-25.111,89.266-29.504C2942.762,1743.84,2991.86,1722.287,2991.86,1722.287z"/>
		<path style="fill:#95A6DB;" d="M3032.537,1527.708c0,0-15.801,22.958-56.529,27.995c-41.305,5.088-68.859,20.749-68.859,20.749
			l8.529-14.532c0,0,13.666-15.871,56.421-18.664C3001.498,1541.324,3032.537,1527.708,3032.537,1527.708z"/>
		<path style="fill:#95A6DB;" d="M2894.65,1599.906c0,0,30.27-10.469,76.795-17.225c29.338-4.354,63.492-30.701,63.492-30.701
			s-19.758,48.166-64.26,51.979c-51.031,4.358-98.172,22.516-98.172,22.516L2894.65,1599.906z"/>
		<path style="fill:#95A6DB;" d="M2913.791,1567.391c0,0,16.203-46.486,57.559-64.717c24.418-11.012,46.824-26.025,66.294-44.42
			c0,0-14.067,47.354-53.827,59.996c-36.672,11.767-56.777,42.553-56.777,42.553L2913.791,1567.391z"/>
		<path style="fill:#95A6DB;" d="M2797.314,1833.996l-7.135-1.176c7.264-44.002,51.902-191.932,131.418-279.221l5.346,4.873
			C2848.537,1644.558,2804.502,1790.557,2797.314,1833.996z"/>
	</g>
	<g>
		<path style="fill:#95A6DB;" d="M319.164,1386.831c0,0-25.157,25.12-14.296,85.897c11.081,61.93-4.786,98.336-4.786,98.336
			l18.438,27.807c0,0,21.259-56.19,9.988-105.533C314.323,1431.594,319.164,1386.831,319.164,1386.831z"/>
		<path style="fill:#95A6DB;" d="M242.057,1382.689c0,0-11.589,23.505,8.091,66.549c20.143,43.854,16.931,73.955,16.931,73.955
			l15.66,22.113c0,0,5.059-50.809-12.619-85.301C248.054,1416.857,242.057,1382.689,242.057,1382.689z"/>
		<path style="fill:#95A6DB;" d="M355.844,1458.879c0,0,17.775,21.799,13.986,88.326c-3.08,54.213-22.352,77.527-24.048,110.803
			l-21.702-42.924c4.435-22.682,22.844-33.195,28.018-82.221C356.958,1486.967,355.844,1458.879,355.844,1458.879z"/>
		<path style="fill:#95A6DB;" d="M500.901,1704.705c0,0,2.589,28.091-37.633,81.14c-32.79,43.294-60.053,42.493-68.166,52.321
			l-3.895-27.715c19.024-15.238,33.692-8.553,65.327-46.363C486.176,1728.592,500.901,1704.705,500.901,1704.705z"/>
		<path style="fill:#95A6DB;" d="M396.451,1512.715c0,0,2.638,48.488-1.923,77.621c-6.405,41.425-28.324,58.314-37.907,100.158
			l14.423,33.111c0,0,31.825-37.678,37.685-89.107C418.566,1548.193,396.451,1512.715,396.451,1512.715z"/>
		<path style="fill:#95A6DB;" d="M467.006,1555.221c-11.774,24.568-19.892,50.729-24.094,77.646
			c-12.15,81.66-70.73,129.455-70.73,129.455l11.97,20.422c0,0,62.731-27.055,71.009-95.922
			C463.828,1614.033,467.006,1555.221,467.006,1555.221z"/>
		<path style="fill:#95A6DB;" d="M324.181,1621.15c0,0-16.727-11.857-96.78-23.877c-51.305-7.686-31.514-22.349-82.256-21.422
			c34.677,13.197,39.448,42.594,86.751,52.514c37.838,7.909,74.998,18.769,111.139,32.484L324.181,1621.15z"/>
		<path style="fill:#95A6DB;" d="M160.101,1628.996c0,0,19.542,46.783,89.477,61.275c43.017,9.025,84.256,25.065,122.067,47.473
			l-10.912-40.387c0,0-22.566-28.65-96.73-36.734C213.049,1655.057,160.101,1628.996,160.101,1628.996z"/>
		<path style="fill:#95A6DB;" d="M182.539,1705.705c0,0,19.542,46.783,89.477,61.274c43.017,9.027,84.256,25.065,122.067,47.473
			l-10.911-40.387c0,0-22.566-28.648-96.732-36.732C235.488,1731.766,182.539,1705.705,182.539,1705.705z"/>
		<path style="fill:#95A6DB;" d="M147.169,1489.807c0,0,16.271,26.002,60.81,33.498c45.172,7.58,74.715,26.125,74.715,26.125
			l-8.679-16.388c0,0-14.263-18.108-61.139-23.234C180.645,1506.27,147.169,1489.807,147.169,1489.807z"/>
		<path style="fill:#95A6DB;" d="M295.309,1575.818c0,0-32.779-12.965-83.609-22.631c-32.049-6.197-68.336-36.809-68.336-36.809
			s19.409,53.91,68.156,60.242c55.9,7.242,106.86,29.477,106.86,29.477L295.309,1575.818z"/>
		<path style="fill:#95A6DB;" d="M275.827,1539.148c0,0-15.581-51.893-60.175-73.928c-26.318-13.281-50.233-30.867-70.756-52.028
			c0,0,13.188,52.745,56.298,68.556c39.757,14.703,60.383,49.519,60.383,49.519L275.827,1539.148z"/>
		<path style="fill:#95A6DB;" d="M391.076,1837.889l7.9-0.951c-5.871-48.73-47.838-213.528-131.069-313.328l-6.114,5.102
			C343.864,1627.133,385.262,1789.779,391.076,1837.889z"/>
	</g>
	<g>
		<g>
			<path style="fill:#4364CC;" d="M1738.875,1634.314l-42.205,196.018c-1.125,5.23-3.002,8.361-5.012,8.361l0,0
				c-3.721,0-6.56-10.459-5.977-22.018l9.188-182.361H1738.875z"/>
			<path style="fill:#4364CC;" d="M2813.594,1634.314l42.205,196.018c1.127,5.23,3.004,8.361,5.012,8.361l0,0
				c3.721,0,6.561-10.459,5.979-22.018l-9.189-182.361H2813.594z"/>
			<path style="fill:#4364CC;" d="M2486.4,1634.314l42.203,196.018c1.127,5.23,3.004,8.361,5.012,8.361l0,0
				c3.721,0,6.561-10.459,5.979-22.018l-9.189-182.361H2486.4z"/>
			<path style="fill:#768FDB;" d="M2179.373,1669.638H1729.17c-26.111,0-47.277-21.167-47.277-47.278v-240.336
				c0-20.303,16.457-36.762,36.761-36.762h460.72V1669.638z"/>
			<path style="fill:#4364CC;" d="M2273.758,1669.638h-450.203c-26.11,0-47.277-21.167-47.277-47.278v-240.336
				c0-20.303,16.459-36.762,36.762-36.762h460.719V1669.638z"/>
			<path style="fill:#768FDB;" d="M2804.615,1427.299h-804.928v-169.014c0-19.486,15.797-35.285,35.285-35.285h769.643V1427.299z"/>
			<path style="fill:#95ADF5;" d="M2859.364,1421.744H1818.548c-23.806,0-43.104,19.3-43.104,43.105v49.713h1083.921V1421.744z"/>
			
				<rect x="1775.443" y="1503.777" transform="matrix(-1 -1.224647e-16 1.224647e-16 -1 4634.8076 3173.6523)" style="fill:#768FDB;" width="1083.921" height="166.098"/>
			<path style="fill:#4364CC;" d="M2859.268,1427.299h-109.303V1223h74.018c19.488,0,35.285,15.799,35.285,35.285V1427.299z"/>
		</g>
		<g>
			<path style="fill:#F37A50;" d="M1774.059,1788.002L1739,1799.418l-16.688-30.795c1.441-1.222,2.369-22.492,2.726-38.662
				l58.096,4.098C1781.394,1750.465,1778.055,1771.992,1774.059,1788.002z"/>
			<g>
				<g>
					<path style="fill:#2C2858;" d="M1712.373,1810.93c0,0-13.715-19.912-29.43-20.174c0,0-29.375,3.658-38.891,16.749
						c-2.99,4.112-1.188,12.339,0.454,17.575c1.024,3.27,4.081,6.688,12.979,8.848c13.145,3.19,30.672,4.514,62.104-5.914
						c37.708-12.507,44.106-8.82,57.982-14.336c14.382-5.717,8.46-23.367,3.282-40.597
						C1780.855,1773.081,1771.588,1795.208,1712.373,1810.93z"/>
				</g>
				<g>
					<g>
						<path style="fill:#4364CC;" d="M1721.14,1765.58c0,0-16.434,11.516-38.485,18.152c-12.336,3.711-45.299,12.418-38.436,34.324
							c1.023,3.269,4.08,6.688,12.979,8.848c13.144,3.192,30.671,4.513,62.104-5.913c37.707-12.507,44.105-8.821,57.982-14.337
							c14.381-5.716,6.236-25.655,1.061-42.885l0,0c-0.066,4.465-1.344,16.256-27.309,28.475
							C1743.287,1795.892,1747.447,1760.359,1721.14,1765.58z"/>
					</g>
				</g>
			</g>
			<path style="fill:#F37A50;" d="M1913.189,1783.912l-34.17,13.856l-18.813-29.546c1.352-1.318,0.779-22.603,0-38.756h58.238
				C1917.864,1745.954,1916.047,1767.662,1913.189,1783.912z"/>
			<path style="fill:#8A284C;" d="M1945.717,1390.525c-78.689,19.867-188.385,79.02-198.76,91.502
				c-21.434,25.785-23.158,109.934-24.115,259.191h63.795c17.988-117.751,41.055-169.955,41.863-217.344
				c0,0,61.375,0.148,150.936-41.463c44.15-20.512,90.013-44.068,73.688-84.1
				C2040.117,1366.416,2020.746,1371.582,1945.717,1390.525z"/>
			<path style="fill:#E62552;" d="M2032.848,1383.295c-65.729,11.256-148.951,92.88-159.328,105.363
				c-21.434,25.785-12.356,108.781-13.313,258.039h60.223c6.098-77.701,36.18-166.29,32.313-222.783
				c0,0,64.686-9.594,154.246-51.204c44.148-20.513,88.977-18.475,78.277-69.759
				C2178.232,1369.23,2109.123,1370.233,2032.848,1383.295z"/>
			<g>
				<g>
					<g>
						<g>
							<path style="fill:#F37A50;" d="M1837.957,1115.262c16.623-16.772,5.719-33.97,5.719-33.97
								c9.122-1.957,57.248,70.947,78,117.275c36.197-36.483,99.979-85.75,117.225-88.622c0,0,23.268-6.254,31.629,21.876
								c7.461,25.108-21.641,42.9-21.641,42.9s-124.496,87.894-142.907,80.081C1877.33,1242.645,1851.4,1138.033,1837.957,1115.262z
								"/>
						</g>
					</g>
				</g>
				<g>
					<g>
						<g>
							<g>
								<path style="fill:#F37A50;" d="M1811.963,1113.186c10.158,0.621,22.721-4.4,26.636,4.707l20.05-9.775l1.213-12.091
									c-17.229-27.604-59.223-35.438-63.381-35.804c-10.803-0.949-15.818-2.063-16.662-0.619
									c-0.844,1.444-3.49,11.063,12.184,12.945c19.672,2.361,6.613,18.087-33.295,3.117c-9.99-3.748-28.796,1.117-21.994,8.42
									C1744.207,1092.132,1765.74,1110.368,1811.963,1113.186z"/>
							</g>
						</g>
					</g>
				</g>
			</g>
			<path style="fill:#2C2858;" d="M2032.916,1130.49c-30.986-4.301-80.255-17.607-59.473-65.35
				c20.783-47.74,23.857-29.47,2.566-77.625c-21.291-48.153,6.166-95.377,42.453-92.565c36.285,2.812,50.85,28.616,91.248,12.766
				c40.4-15.85,83.49,15.961,74.906,53.258c-8.586,37.296-11.861,55.075,6.854,70.762c18.715,15.687,89.412,21.899,71.232,72.796
				c-18.182,50.898-31.461,50.817-16.959,71.871c14.502,21.055-2.135,52.033-41.398,56.584
				c-39.264,4.549-77.197-2.642-100.406-42.651C2080.73,1150.33,2032.916,1130.49,2032.916,1130.49z"/>
			<path style="fill:#3F964F;" d="M1966.621,1148.574c26.256-15.902,69.713-60.414,102.752-47.227
				c33.037,13.188,21.824,53.146,6.014,69.662c-15.809,16.518-64.908,54.324-64.908,54.324L1966.621,1148.574z"/>
			<path style="fill:#0E6A41;" d="M2181.277,1393.754c-14.707-75.873-11.109-75.706-17.219-111.413
				c-15.098-88.247,62.627-159.091-50.986-194.062l-50.316,11.145c-48.344,23.871-57.797,66.787-62.559,96.082
				c-9.068,55.756-1.144,138.985-1.144,138.985l-19.017,47.532c0,0,13.198,13.238,75.741,25.052
				C2118.32,1418.891,2181.277,1393.754,2181.277,1393.754z"/>
			<path style="fill:#F37A50;" d="M2192.801,1168.379c12.07,44.693,13.365,192.484,3.125,205.73l-51.832-28.74
				c0,0-24-153.863-26.746-179.594C2112.492,1121.23,2173.234,1095.373,2192.801,1168.379z"/>
			<path style="fill:#3F964F;" d="M2116.4,1238.875c-4.814-33.967-11.229-98.9,17.277-120.18
				c28.508-21.277,55.797,4.652,61.617,26.762c5.822,22.111,12.4,83.729,12.4,83.729L2116.4,1238.875z"/>
			<path style="fill:#F37A50;" d="M2133.025,1012.305c-1.072,40.117-27.482,71.955-58.989,71.113s-56.18-34.045-55.108-74.16
				c1.072-40.116,27.482-71.953,58.988-71.112C2109.424,938.987,2134.096,972.189,2133.025,1012.305z"/>
			<path style="fill:#F37A50;" d="M2122.748,1035.487l-43.307,41.427c0,0,0.232,22.961-0.463,30.573
				c-1.438,15.71,17.377,18.465,30.189,6.167c12.813-12.299,13.973-25.375,13.973-25.375L2122.748,1035.487z"/>
			<path style="fill:#2C2858;" d="M2012.416,995.401c14.418-1.774,44.582-10.72,52.967-26.352
				c13.672,25.254,53.002,43.73,83.592,49.826c-4.717-27.88-15.672-78.686-69.688-89.337
				C2036.854,921.169,2012.416,995.401,2012.416,995.401z"/>
			<path d="M2034.434,1018.379c-0.76,2.93-3.752,4.689-6.682,3.93c-2.932-0.761-4.689-3.752-3.93-6.683
				c0.76-2.931,3.752-4.69,6.682-3.929C2033.434,1012.457,2035.193,1015.449,2034.434,1018.379z"/>
			<path d="M2079.42,1017.805c-0.822,3.172-4.063,5.076-7.233,4.254c-3.172-0.822-5.076-4.063-4.253-7.233
				c0.822-3.172,4.061-5.077,7.232-4.254S2080.242,1014.633,2079.42,1017.805z"/>
			<g>
				<path style="fill:#2C2858;" d="M2084.822,1011.641c-0.438-0.113-0.841-0.371-1.133-0.762
					c-4.236-5.662-12.355-5.223-12.438-5.217c-1.135,0.07-2.115-0.791-2.189-1.926c-0.074-1.135,0.781-2.115,1.916-2.191
					c0.422-0.029,10.418-0.62,16.016,6.863c0.682,0.912,0.496,2.205-0.416,2.889
					C2086.055,1011.685,2085.408,1011.793,2084.822,1011.641z"/>
			</g>
			<g>
				<path style="fill:#2C2858;" d="M2021.764,1011.017c-0.215-0.056-0.424-0.146-0.619-0.275c-0.951-0.628-1.213-1.907-0.586-2.858
					c4.871-7.386,12.996-6.467,13.338-6.424c1.129,0.141,1.935,1.172,1.793,2.303c-0.141,1.127-1.166,1.928-2.293,1.793
					c-0.266-0.029-5.967-0.594-9.393,4.601C2023.504,1010.912,2022.594,1011.232,2021.764,1011.017z"/>
			</g>
			<path style="fill:#DE623C;" d="M2041.016,1027.25c-2.303,3.65-4.225,7.314-6.658,9.678c-0.821,0.798-0.858,2.123-0.102,2.98
				c3.119,3.545,10.445,5.457,14.873,6.324c0.646,0.127,0.969-0.752,0.395-1.075c-4.861-2.729-7.183-5.005-8.229-6.302
				c-0.521-0.646-0.69-1.498-0.478-2.299c0.49-1.838,1.447-5.58,1.988-8.624C2042.99,1026.883,2041.586,1026.348,2041.016,1027.25z"
				/>
			<path style="fill:#F37A50;" d="M2118.645,1015.6c-6.088,7.209-6.24,17.094-0.34,22.076c5.9,4.983,15.619,3.178,21.707-4.033
				c6.088-7.209,6.242-17.094,0.342-22.076C2134.453,1006.584,2124.734,1008.389,2118.645,1015.6z"/>
			<g>
				<path style="fill:#DE623C;" d="M2126.881,1034.055c-0.301-0.078-0.588-0.226-0.838-0.443c-3.586-3.133-4.732-7.259-3.068-11.041
					c1.703-3.872,5.859-6.357,9.883-5.91c1.133,0.127,1.949,1.146,1.822,2.279c-0.125,1.133-1.146,1.947-2.277,1.822
					c-2.205-0.245-4.688,1.279-5.65,3.471c-0.926,2.105-0.215,4.332,2.006,6.27c0.857,0.75,0.945,2.055,0.195,2.912
					C2128.423,1034.022,2127.613,1034.244,2126.881,1034.055z"/>
			</g>
			<path style="fill:#F37A50;" d="M2147.996,1341.154c14.963-4.742,49.641,27.746,48.432,33.1
				c-44.527,81.684-158.621,115.225-158.621,115.225l-19.939-15.061C2017.867,1474.418,2094.699,1409.723,2147.996,1341.154z"/>
			<path style="fill:#F37A50;" d="M2037.807,1489.479c-2.221,21.309-33.957,49.078-61.727,51.062s-18.844-24.794-7.934-31.737
				c10.908-6.941,26.619-13.854,22.732-19.324c-3.889-5.469-10.843-4.028-15.791-10.428c-4.415-5.713,17.21-16.984,42.779-4.633
				C2026.48,1480.924,2037.807,1489.479,2037.807,1489.479z"/>
			<path style="fill:#FFFFFF;" d="M2060.456,1058.678c0.804,3.808-1.915,7.606-6.075,8.486c-4.16,0.879-8.184-1.494-8.988-5.301
				c-0.805-3.808,1.915-7.607,6.074-8.486C2055.627,1052.498,2059.65,1054.871,2060.456,1058.678z"/>
			<g>
				<g>
					<path style="fill:#2C2858;" d="M1853.27,1811.125c0,0-15.083-18.897-30.777-18.054c0,0-29.045,5.716-37.617,19.444
						c-2.691,4.313-0.313,12.393,1.691,17.5c1.25,3.189,4.541,6.385,13.57,7.912c13.336,2.258,30.912,2.344,61.533-10.268
						c36.734-15.131,43.377-11.902,56.83-18.381c13.944-6.715,6.795-23.904,0.418-40.726
						C1918.918,1768.553,1911.23,1791.276,1853.27,1811.125z"/>
				</g>
				<g>
					<g>
						<path style="fill:#4364CC;" d="M1858.822,1765.271c0,0-15.582,12.644-37.111,20.814
							c-12.045,4.571-44.314,15.576-35.928,36.945c1.253,3.189,4.543,6.384,13.57,7.912c13.337,2.259,30.914,2.344,61.535-10.268
							c36.734-15.13,43.377-11.902,56.83-18.381c13.943-6.713,4.418-26.029-1.959-42.853l0,0
							c0.248,4.459-0.197,16.311-25.236,30.326C1883.047,1793.949,1884.697,1758.213,1858.822,1765.271z"/>
					</g>
				</g>
			</g>
		</g>
		<g id="c_18_">
			<path style="fill:#E86686;" d="M2373.629,1098.317c-39.684,12.056-59.436,95.599-76.332,183.048
				c-27.066,53.223-47.282,94.148-73.254,147.813c24.246,5.492,44.326-9.777,44.326-9.777s61.664-56.66,90.264-118.988
				c6.545-14.263,8.777-42.965,12.484-55.723C2372.746,1204.701,2373.629,1098.317,2373.629,1098.317z"/>
			<path style="fill:#F37A50;" d="M2164.331,1788.173l-35.06,11.417l-16.688-30.797c1.441-1.221,2.368-22.492,2.727-38.661
				l58.094,4.099C2171.665,1750.637,2168.326,1772.162,2164.331,1788.173z"/>
			<g>
				<g>
					<path style="fill:#201D40;" d="M2102.645,1811.1c0,0-13.715-19.911-29.43-20.174c0,0-29.375,3.658-38.892,16.749
						c-2.989,4.113-1.187,12.34,0.455,17.576c1.024,3.269,4.081,6.688,12.979,8.848c13.145,3.19,30.672,4.514,62.104-5.914
						c37.709-12.508,44.107-8.82,57.982-14.336c14.383-5.717,8.461-23.367,3.283-40.596
						C2171.127,1773.254,2161.859,1795.38,2102.645,1811.1z"/>
				</g>
				<g>
					<g>
						<path style="fill:#2C2858;" d="M2111.41,1765.751c0,0-16.433,11.517-38.484,18.152c-12.336,3.712-45.299,12.419-38.436,34.325
							c1.023,3.267,4.08,6.688,12.979,8.848c13.145,3.191,30.672,4.513,62.105-5.914c37.708-12.508,44.105-8.82,57.982-14.336
							c14.381-5.717,6.237-25.654,1.061-42.885l0,0c-0.066,4.465-1.346,16.256-27.309,28.475
							C2133.559,1796.064,2137.719,1760.531,2111.41,1765.751z"/>
					</g>
				</g>
				<g>
					<path style="fill:#494C7F;" d="M2118.186,1792.244c-1.283,0-2.477-0.82-2.889-2.109c-3.436-10.709-14.742-10.726-15.221-10.727
						c-1.672,0.015-3.048-1.324-3.07-2.995c-0.021-1.672,1.305-3.046,2.976-3.075c5.61-0.108,17.231,2.898,21.096,14.944
						c0.513,1.596-0.366,3.305-1.963,3.816C2118.807,1792.197,2118.492,1792.244,2118.186,1792.244z"/>
				</g>
				<g>
					<path style="fill:#494C7F;" d="M2104.499,1798.819c-1.284,0-2.478-0.821-2.89-2.109c-3.436-10.709-14.742-10.726-15.221-10.728
						c-1.67,0.016-3.047-1.324-3.069-2.995s1.304-3.046,2.976-3.075c5.609-0.109,17.23,2.898,21.096,14.943
						c0.512,1.597-0.367,3.307-1.965,3.818C2105.119,1798.771,2104.807,1798.819,2104.499,1798.819z"/>
				</g>
			</g>
			<path style="fill:#F37A50;" d="M2304.543,1792.307l-34.17,13.855l-18.812-29.545c1.351-1.32,4.882-23.959,4.103-40.113
				l54.137,1.355C2309.219,1754.348,2307.4,1776.056,2304.543,1792.307z"/>
			<path style="fill:#201D40;" d="M2335.988,1390.697c-78.689,19.867-188.385,79.02-198.76,91.502
				c-21.434,25.785-27.156,109.934-28.113,259.191h70.025c17.99-117.752,38.822-169.956,39.631-217.344
				c0,0,61.375,0.149,150.936-41.463c44.15-20.512,90.012-44.068,73.688-84.1
				C2430.389,1366.587,2411.019,1371.754,2335.988,1390.697z"/>
			<path style="fill:#2C2858;" d="M2425.549,1391.688c-65.729,11.255-148.951,92.88-159.328,105.362
				c-21.434,25.785-18.81,108.782-19.768,258.039l69.809,1.769c6.1-77.701,33.049-168.058,29.182-224.552
				c0,0,61.207-17.608,155.898-45.646c51.799-15.337,67.035-24.536,74.802-59.549c2.642-11.912,5.474-39.291-0.177-44.98
				C2550.961,1356.955,2487.764,1381.034,2425.549,1391.688z"/>
			<g>
				<g>
					<path style="fill:#201D40;" d="M2244.623,1819.517c0,0-15.082-18.896-30.777-18.053c0,0-29.045,5.715-37.615,19.444
						c-2.693,4.312-0.314,12.392,1.689,17.5c1.252,3.189,4.543,6.384,13.57,7.913c13.336,2.258,30.914,2.343,61.535-10.269
						c36.734-15.129,43.375-11.902,56.83-18.38c13.943-6.715,6.793-23.904,0.416-40.728
						C2310.271,1776.945,2302.586,1799.67,2244.623,1819.517z"/>
				</g>
				<g>
					<g>
						<path style="fill:#2C2858;" d="M2250.176,1773.664c0,0-15.582,12.645-37.111,20.815
							c-12.045,4.572-44.314,15.576-35.926,36.945c1.252,3.189,4.541,6.383,13.57,7.912c13.336,2.258,30.912,2.344,61.533-10.269
							c36.736-15.13,43.377-11.902,56.831-18.38c13.944-6.715,4.417-26.031-1.96-42.854l0,0c0.248,4.457-0.197,16.311-25.236,30.324
							C2274.4,1802.344,2276.053,1766.605,2250.176,1773.664z"/>
					</g>
				</g>
				<g>
					<path style="fill:#494C7F;" d="M2264.734,1800.385c-1.283,0-2.477-0.82-2.889-2.109c-3.436-10.709-14.742-10.726-15.221-10.727
						c-1.672,0.017-3.047-1.323-3.07-2.995c-0.021-1.67,1.305-3.045,2.977-3.074c5.609-0.109,17.23,2.897,21.094,14.943
						c0.514,1.596-0.365,3.305-1.963,3.818C2265.354,1800.338,2265.041,1800.385,2264.734,1800.385z"/>
				</g>
				<g>
					<path style="fill:#494C7F;" d="M2251.047,1806.961c-1.283,0-2.477-0.822-2.889-2.109
						c-3.436-10.709-14.742-10.726-15.221-10.728c-1.67,0.016-3.047-1.323-3.07-2.994c-0.021-1.672,1.305-3.047,2.977-3.076
						c5.609-0.109,17.23,2.898,21.096,14.943c0.512,1.598-0.367,3.307-1.965,3.818
						C2251.668,1806.912,2251.355,1806.961,2251.047,1806.961z"/>
				</g>
			</g>
			<g>
				<polygon id="v-2_4_" style="fill:#F37A50;" points="2472.328,1031.453 2472.297,1031.453 2445.832,1031.551 2439.838,1094.061 
					2470.732,1110.373 2503.678,1094.244 2498.354,1031.551 				"/>
				<g>
					<g>
						<path style="fill:#2C2858;" d="M2484.313,1021.959c22.195,9.623,43.023-16.164,43.023-16.164
							c14.793,1.891,16.619-12.859,16.619-12.859c7.301-0.047,18.36-4.56,19.313-18.18c0.805-11.532-9.943-14.195-7.52-27.258
							c1.943-10.481,16.682-33.187-15.152-44.812c0,0,4.85-19.112-13.268-29.448c-22.213-12.672-32.406-0.096-43.639-0.65
							c-12.546-0.622-34.457-18.887-45.826,7.183c0,0-16.801-4.602-28.104,5.245c-10.529,9.174-10.666,24.885-7.453,31.638
							c0,0-14.74,0.555-21.605,12.308c-4.604,7.881-4.578,19.852,2.291,27.713c4.369,5.002,9.389,6.846,9.389,6.846
							c5.197,2.527,1.164,17.26,5.131,21.528c6.369,6.85,13.805,12.563,21.58,17.651L2484.313,1021.959z"/>
						<path style="fill:#F37A50;" d="M2532.283,991.26c-7.42,43.208-46.531,75.996-80.468,70.17
							c-33.937-5.828-49.847-48.064-42.426-91.274c7.419-43.208,40.944-73.512,74.882-67.684
							C2518.207,908.3,2539.703,948.051,2532.283,991.26z"/>
						<path d="M2425.775,980.313c-1.279,3.05-4.789,4.486-7.838,3.206c-3.049-1.278-4.484-4.789-3.205-7.838
							s4.787-4.485,7.838-3.205C2425.619,973.754,2427.055,977.264,2425.775,980.313z"/>
						<path d="M2473.463,988.839c-1.385,3.301-5.184,4.856-8.484,3.47c-3.303-1.385-4.855-5.184-3.471-8.485
							c1.385-3.301,5.184-4.855,8.484-3.471C2473.295,981.739,2474.848,985.538,2473.463,988.839z"/>
						<path style="fill:#DE623C;" d="M2436.666,987.757c-6.584,7.934-14.872,17.581-14.872,17.581s1.938,9.564,13.976,11.318
							c-4.818-2.797-9.4-6.91-6.404-13.433C2432.363,996.703,2436.666,987.757,2436.666,987.757z"/>
						<g>
							<path style="fill:#2C2858;" d="M2484.188,982.559c0.225-0.049,0.447-0.124,0.664-0.226c1.49-0.711,2.121-2.494,1.412-3.983
								c-1.939-4.066-7.963-11.266-16.883-9.403c-1.623,0.363-2.652,1.92-2.314,3.535c0.337,1.615,1.92,2.651,3.535,2.315
								c6.605-1.38,10.23,6.05,10.268,6.125C2481.475,982.195,2482.867,982.841,2484.188,982.559z"/>
						</g>
						<g>
							<path style="fill:#2C2858;" d="M2429.26,966.617c0.42-0.09,0.82-0.289,1.158-0.598c1.016-0.928,1.086-2.503,0.156-3.518
								c-0.145-0.159-3.621-3.897-8.648-3.757c-3.434,0.095-6.617,1.907-9.46,5.385c-0.87,1.064-0.714,2.633,0.351,3.503
								c1.065,0.87,2.635,0.713,3.504-0.352c1.889-2.308,3.82-3.505,5.744-3.558c2.73-0.076,4.816,2.118,4.836,2.141
								C2427.52,966.538,2428.424,966.795,2429.26,966.617z"/>
						</g>
						<path style="fill:#2C2858;" d="M2406.385,917.89l79.459-37.921l68.193,64.34l-26.828,54.917
							c5.783-27.307-13.105-23.482-19.273-33.767c-6.254-10.425-6.365-23.879-29.727-18.856c0,0-13.066-16.056-26.111-2.636
							c-10.086,10.376-18.216,5.44-27.189,3.512c-10.586-2.273-11.066,8.517-17.302,6.338L2406.385,917.89z"/>
						<g>
							<path style="fill:#F37A50;" d="M2523.146,986.538c-7.734,6.815-9.482,17.472-3.904,23.802
								c5.578,6.33,16.371,5.936,24.105-0.882c7.734-6.815,9.482-17.472,3.904-23.802
								C2541.674,979.326,2530.881,979.721,2523.146,986.538z"/>
							<g>
								<path style="fill:#DE623C;" d="M2529.09,1007.799c-0.312-0.132-0.6-0.338-0.834-0.612
									c-3.372-3.958-3.951-8.603-1.547-12.422c2.46-3.913,7.35-5.932,11.627-4.804c1.204,0.319,1.922,1.551,1.604,2.754
									c-0.317,1.204-1.551,1.922-2.755,1.605c-2.344-0.619-5.27,0.632-6.662,2.845c-1.337,2.127-0.924,4.648,1.164,7.097
									c0.808,0.947,0.693,2.371-0.254,3.178C2530.762,1008.012,2529.852,1008.121,2529.09,1007.799z"/>
							</g>
						</g>
						<path style="fill:#FFFFFF;" d="M2449.395,1034.764c-0.877,4.83-5.865,7.969-11.145,7.012c-5.277-0.959-8.846-5.65-7.968-10.48
							c0.876-4.832,5.866-7.971,11.144-7.013S2450.271,1029.933,2449.395,1034.764z"/>
					</g>
				</g>
			</g>
			<g id="v_7_">
				<path id="v-25_4_" style="fill:#FFD0B7;" d="M2527.904,1109.668c-19.221-6.482-39.439-9.496-59.717-8.9
					c-68.67,0-79.184,17.35-79.184,16.945l50.961,139.943l28.223,13.929l30.891-9.151
					C2499.078,1262.433,2539.123,1113.842,2527.904,1109.668z"/>
				<path style="fill:#F5A3B7;" d="M2579.236,1387.933c0,0-55.912,14.316-107.813,14.66
					c-51.898-0.381-106.756-19.055-106.756-19.055s6.975-95.313,6.265-131.916c-1.011-42.029,2.694-97.762,2.694-153.307
					c0,0,36.813-5.927,57.58-8.486c3.375-0.418,6.324-0.74,8.629-0.943c0,0,11.832,24.824,63.388,0
					c2.709-0.27,6.062-0.254,9.812-0.037c21.658,1.295,56.539,9.467,56.539,9.467c0,55.396,2.238,109.684,1.49,151.72
					C2573.37,1287.529,2579.236,1387.933,2579.236,1387.933z"/>
			</g>
			<g id="c_20_">
				<path style="fill:#F37A50;" d="M2442.693,1218.391l-12.565-7.28c0,0-3.478-17.821-23.655-18.251
					c2.311,7.479,5.639,18.251,5.639,18.251s-9.932,7.71-33.486-5.485c-23.025-5.174-13.189,11.614-20.82,12.82
					c-11.262,1.777,8.207,23.906,31.199,27.293c29.748,4.381,33.279-1.709,33.279-1.709l16.834,5.883L2442.693,1218.391z"/>
				<path id="c_21_" style="fill:#E86686;" d="M2558.965,1237.432c-41.998-2.936-113.641-23.678-113.641-23.678
					c-11.464,17.584-8.293,40.941-8.293,40.941c65.219,57.18,163.376,75.664,193.492,61.9
					c27.495-12.563,8.086-179.938-60.949-218.278l-2.393,0.224C2543.515,1138.588,2558.965,1237.432,2558.965,1237.432z"/>
			</g>
			<path id="c_19_" style="fill:#F37A50;" d="M2229.334,1434.086c0.387-0.606,0.627-1.261,0.803-1.932
				c0.102,0.067,0.195,0.139,0.299,0.205c6.08,3.884,13.268,3.494,16.051-0.869c0.457-0.717,0.753-1.5,0.925-2.318
				c4.472,1.045,8.704-0.033,10.692-3.148c0.789-1.238,1.125-2.664,1.084-4.156c4.398,1.334,8.973,0.136,11.197-3.354
				c2.783-4.363,0.831-10.588-4.359-13.902c-5.191-3.315-11.656-2.463-14.439,1.9c-0.705,1.105-1.104,2.328-1.226,3.595
				c-5.646-2.776-11.763-2.091-14.279,1.854c-0.456,0.717-0.753,1.499-0.925,2.318c-4.473-1.046-8.705,0.033-10.693,3.149
				c-0.732,1.148-1.078,2.461-1.092,3.838c-3.85-1.36-7.957-0.385-9.914,2.684c-2.35,3.685-0.703,8.943,3.683,11.74
				C2221.523,1438.49,2226.984,1437.771,2229.334,1434.086z"/>
			<path style="fill:#E86686;" d="M2513.035,1088.85v0.008c-3.586,5.988-8.66,10.516-15.816,14.115
				c-11.33,5.718-26.729,8.141-36.211,7.4c-7.508-0.591-15.834-3.654-21.17-7.882c-5.665-4.497-8.129-10.229-8.631-12.661
				c3.375-0.418,6.842-0.941,9.146-1.144c0,0,11.314,25.025,62.87,0.201C2505.933,1088.617,2509.285,1088.633,2513.035,1088.85z"/>
		</g>
		<path style="fill:#768FDB;" d="M2801.916,1665.967h-330.807c-22.26,0-40.305-18.046-40.305-40.307V1372.93
			c0-17.309,14.031-31.34,31.34-31.34h348.738c17.308,0,31.34,14.031,31.34,31.34v252.731
			C2842.223,1647.921,2824.176,1665.967,2801.916,1665.967z"/>
		<path style="fill:#4364CC;" d="M2859.364,1669.876h-294.163c-20.072,0-36.342-16.271-36.342-36.343V1369.85
			c0-15.608,12.65-28.26,28.258-28.26h302.247V1669.876z"/>
	</g>
	<g>
		<path style="fill:#E62552;" d="M1536.523,620.91h309.121c38.264,0,69.283,31.019,69.283,69.282v144.103
			c0,38.263-31.02,69.281-69.283,69.281h-2.293l24.811,83.117c1.091,3.656-3.133,6.575-6.166,4.26l-114.535-87.376h-210.938
			c-38.263,0-69.282-31.018-69.282-69.281V690.192C1467.242,651.929,1498.26,620.91,1536.523,620.91z"/>
		<path style="fill:#FFFFFF;" d="M1845.5,741.913h-296.783c-18.939,0-34.292-15.354-34.292-34.292l0,0
			c0-18.94,15.353-34.294,34.292-34.294H1845.5c18.939,0,34.293,15.354,34.293,34.294l0,0
			C1879.793,726.558,1864.439,741.913,1845.5,741.913z"/>
		<path style="fill:#FFFFFF;" d="M1845.5,846.643h-296.783c-18.939,0-34.292-15.354-34.292-34.293l0,0
			c0-18.939,15.353-34.293,34.292-34.293H1845.5c18.939,0,34.293,15.354,34.293,34.293l0,0
			C1879.793,831.289,1864.439,846.643,1845.5,846.643z"/>
	</g>
	<g>
		<path style="fill:#95ADF5;" d="M2901.816,640.932h-285.755c-35.372,0-64.046,28.674-64.046,64.046v133.209
			c0,35.372,28.674,64.046,64.046,64.046h2.12l-22.936,76.834c-1.01,3.379,2.895,6.077,5.699,3.938l105.878-80.772h194.993
			c35.371,0,64.047-28.674,64.047-64.046V704.978C2965.863,669.606,2937.188,640.932,2901.816,640.932z"/>
		<path style="fill:#FFFFFF;" d="M2899.406,753.518h-287.719c-14.27,0-25.838-11.567-25.838-25.837v-6.461
			c0-14.271,11.568-25.838,25.838-25.838h287.719c14.27,0,25.838,11.567,25.838,25.838v6.461
			C2925.244,741.951,2913.676,753.518,2899.406,753.518z"/>
		<path style="fill:#FFFFFF;" d="M2758.961,841.418h-134.729c-16.054,0-29.069-13.015-29.069-29.069l0,0
			c0-16.055,13.016-29.068,29.069-29.068h134.729c16.054,0,29.068,13.013,29.068,29.068l0,0
			C2788.029,828.404,2775.015,841.418,2758.961,841.418z"/>
	</g>
	<g>
		<path style="fill:#95ADF5;" d="M2100.484,219.343h-285.756c-35.371,0-64.045,28.673-64.045,64.045v133.211
			c0,35.37,28.674,64.044,64.045,64.044h2.121l-22.936,76.835c-1.01,3.379,2.895,6.077,5.699,3.937l105.877-80.772h194.994
			c35.371,0,64.045-28.674,64.045-64.044V283.388C2164.529,248.017,2135.855,219.343,2100.484,219.343z"/>
		<path style="fill:#FFFFFF;" d="M2008.662,331.93h-195.076c-16.054,0-29.068-13.015-29.068-29.068l0,0
			c0-16.055,13.015-29.069,29.068-29.069h195.076c16.055,0,29.068,13.015,29.068,29.069l0,0
			C2037.73,318.915,2024.717,331.93,2008.662,331.93z"/>
		<path style="fill:#FFFFFF;" d="M2106.322,419.829h-283.424c-16.055,0-29.068-13.014-29.068-29.068l0,0
			c0-16.055,13.014-29.069,29.068-29.069h283.424c16.053,0,29.068,13.014,29.068,29.069l0,0
			C2135.391,406.816,2122.375,419.829,2106.322,419.829z"/>
	</g>
	<g>
		<path style="fill:#FFFFFF;" d="M1309.287,788.765c9.198-6.949,20.236-10.424,33.113-10.424c27.799,0,42.516,15.126,42.516,36.384
			c0,12.264-5.927,24.733-17.987,37.201c-15.33,16.148-26.368,24.121-33.317,24.121c-6.746,0-11.651-5.315-11.651-11.651
			c0-5.723,5.314-11.447,14.513-19.827c0.613-0.613,1.226-1.226,1.635-1.431c10.425-9.607,13.695-14.921,13.695-21.462
			c0-8.176-5.519-12.673-13.491-12.673c-3.679,0-7.972,0.818-13.082,2.454c-5.11,1.635-8.79,2.452-11.038,2.452
			c-5.724,0-12.265-4.906-12.265-13.082C1301.929,796.533,1304.381,792.445,1309.287,788.765z M1337.291,925.103
			c-12.469,0-20.849-9.402-20.849-20.849c0-9.812,8.38-19.214,20.849-19.214c10.833,0,19.214,9.402,19.214,19.214
			C1356.504,915.497,1348.533,925.103,1337.291,925.103z"/>
	</g>
	<g>
		<path style="fill:#FFFFFF;" d="M2459.498,574.966c-37.152,0-67.379-30.227-67.379-67.38c0-37.153,30.227-67.38,67.379-67.38
			s67.379,30.227,67.379,67.38C2526.877,544.739,2496.65,574.966,2459.498,574.966z M2459.498,458.766
			c-26.92,0-48.82,21.9-48.82,48.821c0,26.92,21.9,48.821,48.82,48.821s48.821-21.9,48.821-48.821
			C2508.319,480.665,2486.418,458.766,2459.498,458.766z"/>
	</g>
	<g>
		<path style="fill:#FFFFFF;" d="M1098.187,496.251c-24.434,0-44.313-19.879-44.313-44.313c0-24.434,19.879-44.314,44.313-44.314
			c24.435,0,44.313,19.88,44.313,44.314C1142.5,476.371,1122.621,496.251,1098.187,496.251z M1098.187,419.829
			c-17.704,0-32.108,14.403-32.108,32.108c0,17.705,14.404,32.108,32.108,32.108c17.705,0,32.108-14.403,32.108-32.108
			C1130.295,434.233,1115.891,419.829,1098.187,419.829z"/>
	</g>
	<g>
		<path style="fill:#FFFFFF;" d="M917.407,216.981c-19.116,0-34.668-15.552-34.668-34.668c0-19.115,15.552-34.667,34.668-34.667
			c19.116,0,34.667,15.552,34.667,34.667C952.074,201.429,936.523,216.981,917.407,216.981z M917.407,157.194
			c-13.851,0-25.119,11.268-25.119,25.118c0,13.851,11.268,25.12,25.119,25.12c13.851,0,25.119-11.269,25.119-25.12
			C942.526,168.462,931.258,157.194,917.407,157.194z"/>
	</g>
	<path style="fill:#E3EAFF;" d="M1604.07,172.667c0,26.181-21.223,47.405-47.402,47.405c-26.182,0-47.405-21.224-47.405-47.405
		c0-26.18,21.223-47.403,47.405-47.403C1582.848,125.263,1604.07,146.487,1604.07,172.667z"/>
	<path style="fill:#FFFFFF;" d="M2574.281,356.871c0,26.182-21.223,47.404-47.404,47.404c-26.18,0-47.403-21.223-47.403-47.404
		c0-26.179,21.224-47.402,47.403-47.402C2553.059,309.469,2574.281,330.692,2574.281,356.871z"/>
	<path style="fill:#FFFFFF;" d="M874.746,255.458c0,26.18-21.224,47.404-47.404,47.404c-26.18,0-47.403-21.224-47.403-47.404
		c0-26.18,21.224-47.404,47.403-47.404C853.522,208.054,874.746,229.278,874.746,255.458z"/>
	<path style="fill:#FFFFFF;" d="M598.242,713.519c-15.681,15.681-41.104,15.681-56.784,0c-15.681-15.68-15.681-41.104,0-56.784
		c15.681-15.681,41.104-15.681,56.784,0C613.923,672.416,613.923,697.839,598.242,713.519z"/>
	<path style="fill:#E3EAFF;" d="M278.835,905.134c0,21.245-17.223,38.467-38.469,38.467c-21.245,0-38.468-17.223-38.468-38.467
		c0-21.246,17.223-38.468,38.468-38.468C261.612,866.666,278.835,883.888,278.835,905.134z"/>
	<g id="c_17_">
		<g>
			<polygon id="v-2_6_" style="fill:#F37A50;" points="527.441,958.699 527.473,958.699 554.069,958.795 560.093,1021.617 
				529.045,1038.012 495.936,1021.803 501.287,958.795 			"/>
			<g>
				<g>
					<path style="fill:#F37A50;" d="M448.27,923.164c18.211,45.504,61.945,70.799,97.686,56.496
						c35.739-14.301,49.95-62.786,31.739-108.29c-18.21-45.504-61.945-70.799-97.685-56.498
						C444.27,829.175,430.06,877.659,448.27,923.164z"/>
					<path d="M562.152,886.304c2.111,3.035,6.284,3.785,9.319,1.674c3.035-2.111,3.784-6.283,1.673-9.319
						c-2.11-3.034-6.284-3.784-9.318-1.672C560.791,879.097,560.042,883.268,562.152,886.304z"/>
					<path d="M512.01,906.771c2.286,3.284,6.802,4.095,10.088,1.811c3.286-2.286,4.097-6.803,1.811-10.088
						c-2.285-3.287-6.801-4.097-10.087-1.811C510.535,898.969,509.724,903.484,512.01,906.771z"/>
					<path style="fill:#DE623C;" d="M551.986,896.988c9.051,7.134,20.369,15.743,20.369,15.743s0.114,10.91-12.636,15.642
						c4.615-4.185,8.662-9.754,3.862-16.183C558.782,905.761,551.986,896.988,551.986,896.988z"/>
					<g>
						<path style="fill:#201D40;" d="M498.817,902.411c-0.257,0-0.519-0.029-0.778-0.092c-1.795-0.428-2.901-2.23-2.474-4.024
							c1.168-4.901,6.07-14.177,16.259-14.227c1.859,0.018,3.347,1.48,3.356,3.325c0.009,1.845-1.479,3.347-3.325,3.356
							c-7.543,0.036-9.771,9.006-9.792,9.097C501.697,901.378,500.328,902.411,498.817,902.411z"/>
					</g>
					<g>
						<path style="fill:#201D40;" d="M555.143,872.143c-0.479,0-0.964-0.124-1.405-0.382c-1.327-0.777-1.771-2.482-0.995-3.809
							c0.123-0.208,3.051-5.108,8.579-6.13c3.774-0.698,7.679,0.539,11.601,3.677c1.2,0.96,1.396,2.712,0.436,3.913
							c-0.962,1.199-2.713,1.396-3.914,0.434c-2.602-2.083-4.996-2.94-7.109-2.549c-3.005,0.557-4.77,3.442-4.788,3.471
							C557.028,871.651,556.098,872.143,555.143,872.143z"/>
					</g>
					<path style="fill:#201D40;" d="M408.009,905.119c-11.395-45.058,26.617-80.286,26.617-80.286s-4.929-0.493-10.194-2.742
						c-7.086-3.029-4.763-13.631,2.943-13.537c9.332,0.115,20.456-1.588,28.632-7.719c51.503-38.628,93.375-17.911,93.375,3.491
						c0,7.615,47.124,12.653,29.974,71.46c1.015-3.478-18.608-38.727-29.76-40.827c-11.192-2.108-1.083,12.802-24.39,16.003
						c-23.515,3.229-40.806-2.479-55.17,10.78c-26.685,27.435-0.546,93.414,1.162,96.957
						C467.279,950.576,420.663,955.155,408.009,905.119z"/>
					<g>
						<path style="fill:#F37A50;" d="M466.55,913.483c10.049,5.645,14.45,16.887,9.831,25.109
							c-4.62,8.226-16.51,10.316-26.558,4.671c-10.05-5.643-14.451-16.887-9.832-25.109
							C444.609,909.931,456.501,907.84,466.55,913.483z"/>
						<g>
							<path style="fill:#DE623C;" d="M465.021,938.118c0.31-0.218,0.576-0.509,0.768-0.864c2.763-5.117,2.31-10.329-1.211-13.943
								c-3.603-3.703-9.423-4.768-13.834-2.536c-1.243,0.63-1.739,2.144-1.11,3.386c0.628,1.243,2.145,1.738,3.386,1.111
								c2.418-1.223,5.909-0.541,7.948,1.553c1.961,2.014,2.098,4.866,0.387,8.033c-0.661,1.225-0.204,2.753,1.021,3.415
								C463.244,938.741,464.265,938.649,465.021,938.118z"/>
						</g>
					</g>
					<g>
						<path style="fill:#DE623C;" d="M543.426,951.697c-3.859-0.921-7.883-2.497-12.052-4.726c-1.085-0.579-1.495-1.929-0.915-3.014
							c0.579-1.084,1.928-1.494,3.014-0.914c9.244,4.941,17.529,6.347,24.63,4.18c8.776-2.676,12.783-10.07,12.823-10.145
							c0.575-1.085,1.92-1.502,3.006-0.931c1.087,0.571,1.508,1.909,0.94,2.997c-0.192,0.369-4.83,9.056-15.388,12.315
							C554.528,952.988,549.156,953.064,543.426,951.697z"/>
					</g>
				</g>
			</g>
		</g>
		<path d="M575.977,1780.561c23.517,32.447,81.269,12.537,79.357,56.424c-87.825-0.563-124.324,0-124.324,0
			c0.115-10.08,1.851-34.004,3.877-43.369L575.977,1780.561z"/>
		<path d="M437.481,1780.561c23.517,32.447,81.269,12.537,79.358,56.424c-87.826-0.563-124.326,0-124.326,0
			c0.116-10.08,1.852-34.004,3.878-43.369L437.481,1780.561z"/>
		<path style="fill:#201D40;" d="M615.964,1284.499c0,0,25.468,215.464,19.676,261.699c-5.794,46.234-37.516,98.015-35.189,250.947
			c-28.631,7.168-70.109,0-70.109,0s-6.149-172.925,24.116-250.161c-12.308-75.027-51.799-246.865-51.799-246.865L615.964,1284.499z
			"/>
		<path style="fill:#2C2858;" d="M562.442,1290.875c0,0-28.793,233.476-42.888,277.762c-14.094,44.285-35.495,76.986-61.013,227.642
			c-29.421,1.473-62.905,4.743-62.905,4.743s3.972-191.102,49.794-234.56c1.552-76.082-7.409-274.089-7.409-274.089
			L562.442,1290.875z"/>
		<g id="v_6_">
			<path id="h-5_4_" style="fill:#3F964F;" d="M423.766,1017.887c0,0,57.589-1.928,73.787-0.92c33.807,30.514,62.54-0.55,62.54-0.55
				c18.176-4.034,61.105-4.034,61.105-4.034c5.435,72.527,14.441,304.469,14.441,304.469s-55.134,14.455-107.29,14.832
				c-52.156-0.34-122.473-12.416-122.473-12.416s10.242-101.958,12.559-139.642C417.682,1137.387,423.766,1073.555,423.766,1017.887
				z"/>
		</g>
		<g>
			<g>
				<path style="fill:#F9F93A;" d="M836.049,1048.994c-0.871-4.372-2.736-8.268-5.233-11.646
					c-19.201-35.277-73.477-21.611-151.822-7.916c-13.099,2.292-8.693-14.52-10.817-49.076
					c-1.381-22.476-22.245-53.254-46.067-48.51c-39.278,7.823,4.651,31.143-14.888,114.338
					c-10.438,44.453-56.465,29.883-48.311,70.822l18.559,93.189c3.174,15.936,7.796,30.94,30.81,28.978
					c22.31-1.901,20.486,14.559,51.967,8.29l157.567-31.383c16.051-3.195,26.516-18.803,23.332-34.781
					c-1.318-6.624-4.852-12.193-9.589-16.33c7.918-6.737,12.164-17.327,10-28.193c-1.315-6.607-4.841-12.179-9.566-16.308
					c7.947-6.735,12.208-17.337,10.04-28.221c-1.573-7.903-6.215-14.427-12.437-18.638
					C835.146,1066.98,837.859,1058.088,836.049,1048.994L836.049,1048.994z"/>
				<path style="fill:#F7D33C;" d="M737.59,1098.73l75.133-14.964c10.218-2.034,18.722-9.388,22.2-19.182
					c1.43-4.036-0.696-8.466-4.757-9.891c-4.051-1.426-8.501,0.718-9.94,4.754c-1.641,4.657-5.695,8.14-10.541,9.104l-76.935,15.323
					c-7.623,1.519-15.052-3.419-16.563-11.011c-1.512-7.59,3.459-14.996,11.082-16.515l51.408-10.237
					c4.219-0.84,6.963-4.93,6.126-9.13c-0.836-4.198-4.939-6.924-9.155-6.085l-51.417,10.24
					c-16.05,3.196-26.517,18.793-23.334,34.774c1.774,8.91,7.492,15.971,14.927,20.02c-4.322,6.33-6.213,14.3-4.606,22.367
					c1.78,8.938,7.529,16.018,14.996,20.053c-4.289,6.313-6.15,14.25-4.547,22.299c1.939,9.738,8.533,17.354,17.002,21.137
					c-3.557,6.032-5.093,13.271-3.624,20.642c3.182,15.979,18.826,26.378,34.876,23.181l47.89-9.538
					c10.216-2.033,18.73-9.38,22.209-19.174c1.439-4.037-0.688-8.468-4.739-9.895c-4.057-1.406-8.514,0.701-9.942,4.736
					c-1.659,4.662-5.712,8.153-10.559,9.118l-47.889,9.538c-7.624,1.518-15.052-3.422-16.565-11.01
					c-1.511-7.59,3.459-14.998,11.084-16.516l56.813-11.315c10.217-2.034,18.739-9.389,22.208-19.182
					c1.438-4.045-0.689-8.477-4.739-9.893c-4.094-1.455-8.521,0.701-9.942,4.736c-1.681,4.738-5.632,8.146-10.557,9.125
					l-61.677,12.284c-7.624,1.519-15.055-3.429-16.566-11.018c-1.512-7.589,3.459-14.997,11.083-16.515l70.653-14.071
					c10.218-2.035,18.732-9.38,22.211-19.174c1.438-4.037-0.688-8.469-4.739-9.895c-4.067-1.414-8.514,0.701-9.942,4.737
					c-1.683,4.729-5.634,8.136-10.559,9.118l-72.584,14.455c-7.623,1.518-15.054-3.42-16.563-11.01
					C724.997,1107.664,729.958,1100.25,737.59,1098.73L737.59,1098.73z"/>
			</g>
			<path style="fill:#7F99EB;" d="M587.948,1250.538l-49.061,9.771c-6.796,1.354-13.401-3.059-14.755-9.854l-29.034-145.791
				c-1.354-6.797,3.057-13.4,9.853-14.755l49.06-9.771c6.796-1.353,13.401,3.057,14.754,9.854l29.036,145.791
				C599.154,1242.579,594.743,1249.186,587.948,1250.538z"/>
		</g>
		<g>
			<g>
				<g>
					<g>
						<g>
							<g>
								<path style="fill:#F37A50;" d="M630.448,1268.072c-10.43-0.824-22.012-5.9-29.931,0.674l-15.073-23.229
									c21.49-25.634,64.065-29.365,68.352-29.142c11.131,0.581,16.397,0.164,17.049,1.756c0.653,1.592,1.97,11.762-14.257,11.434
									c-20.363-0.414-9.321,17.463,33.446,7.94c10.708-2.384,29.155,5.263,21.185,11.721
									C702.438,1256.344,677.906,1271.824,630.448,1268.072z"/>
							</g>
						</g>
					</g>
				</g>
			</g>
			<path style="fill:#F37A50;" d="M416.432,1220.637c-15.652,6.6-21.404,57.709-16.647,61.27
				c70.554,22.588,203.967-14.014,203.967-14.014l9.88-25.863C613.631,1242.029,508.475,1239.686,416.432,1220.637z"/>
			<path style="fill:#F37A50;" d="M381.771,1071.419c-7.236,46.249,6.27,198.296,18.014,210.487l52.292-41.203
				c0,0,5.314-154.004,5.254-180.17C457.331,1015.226,393.44,995.889,381.771,1071.419z"/>
		</g>
		<path id="c_22_" style="fill:#F37A50;" d="M808.269,1028.881c-0.639-0.695-1.1-1.488-1.481-2.318
			c-0.116,0.11-0.221,0.226-0.34,0.335c-6.977,6.425-16.37,7.572-20.975,2.565c-0.756-0.823-1.319-1.768-1.729-2.788
			c-5.548,2.381-11.274,1.959-14.563-1.617c-1.305-1.42-2.068-3.188-2.358-5.131c-5.387,2.739-11.581,2.24-15.264-1.764
			c-4.605-5.008-3.51-13.514,2.446-18.997c5.956-5.483,14.521-5.868,19.127-0.86c1.166,1.267,1.963,2.761,2.412,4.371
			c6.668-4.891,14.742-5.411,18.906-0.882c0.757,0.821,1.319,1.767,1.731,2.786c5.546-2.381,11.274-1.957,14.564,1.619
			c1.213,1.316,1.961,2.936,2.294,4.716c4.673-2.647,10.213-2.327,13.45,1.193c3.89,4.231,2.965,11.413-2.066,16.044
			C819.393,1032.785,812.16,1033.111,808.269,1028.881z"/>
		<path style="fill:#0E6A41;" d="M416.432,1220.637c-15.652,6.6-21.404,57.709-16.647,61.27
			c70.554,22.588,196.589-11.862,196.589-11.862l-9.051-35.985C587.322,1234.058,508.475,1239.686,416.432,1220.637z"/>
		<path style="fill:#0E6A41;" d="M380.605,1070.42c-7.688,47.272-1.561,200.819,19.179,211.486l52.711-40.232
			c0,0,6.188-157.065,6.244-183.732C458.945,1011.762,393.006,993.224,380.605,1070.42z"/>
	</g>
</g>
</svg>
